<?xml version="1.0" standalone="no"?>
<!DOCTYPE svg PUBLIC "-//W3C//DTD SVG 20010904//EN"
 "http://www.w3.org/TR/2001/REC-SVG-20010904/DTD/svg10.dtd">
<svg version="1.0" xmlns="http://www.w3.org/2000/svg"
 width="260.000000pt" height="260.000000pt" viewBox="0 0 260.000000 260.000000"
 preserveAspectRatio="xMidYMid meet">
<metadata>
Created by potrace 1.11, written by Peter Selinger 2001-2013
</metadata>
<g transform="translate(0.000000,260.000000) scale(0.100000,-0.100000)"
fill="#000000" stroke="none">
<path d="M755 1926 c-33 -8 -80 -25 -104 -37 -41 -22 -115 -91 -134 -124 -17
-32 -23 -12 -22 75 l1 91 -45 -7 c-25 -4 -55 -9 -66 -11 -11 -3 -101 -7 -200
-8 -141 -3 -180 -6 -181 -17 -1 -22 17 -38 41 -38 36 0 83 -46 96 -93 9 -29
12 -175 13 -482 0 -396 -2 -443 -17 -472 -20 -38 -40 -50 -94 -59 -32 -5 -39
-10 -39 -28 l0 -22 311 0 c170 1 309 4 308 9 -2 4 -3 14 -3 22 0 8 -7 15 -16
15 -9 0 -31 7 -49 16 -58 27 -61 50 -60 479 1 351 2 384 20 435 39 108 129
168 238 157 60 -5 91 -33 107 -94 15 -63 16 -877 0 -919 -17 -44 -39 -64 -80
-70 -29 -5 -36 -10 -36 -28 l0 -22 311 0 310 0 0 22 c0 18 -7 23 -39 27 -51 7
-88 35 -102 78 -8 22 -12 168 -12 434 -1 220 -4 411 -7 425 -14 73 -19 88 -36
122 -24 47 -62 83 -117 109 -58 26 -212 34 -297 15z"/>
<path d="M1843 1925 c-225 -40 -345 -151 -322 -298 9 -52 39 -106 73 -127 32
-20 136 -24 176 -7 43 19 84 62 97 102 12 34 9 98 -5 135 -13 33 -60 80 -96
95 l-30 13 35 18 c47 25 65 29 139 29 84 -1 125 -23 158 -88 22 -42 25 -61 27
-179 3 -205 1 -207 -290 -323 -265 -106 -345 -187 -348 -351 -2 -161 99 -261
274 -269 123 -7 243 39 321 123 l46 49 11 -42 c23 -92 112 -139 246 -130 39 2
80 6 92 9 34 7 115 45 135 63 17 15 17 18 2 34 -15 17 -17 16 -48 -2 -34 -20
-74 -18 -88 3 -10 17 -10 -2 -13 463 -2 358 -4 418 -20 472 -29 103 -102 169
-225 203 -62 18 -260 20 -347 5z m252 -763 c-1 -125 -4 -236 -8 -247 -11 -27
-60 -65 -106 -81 -74 -25 -150 14 -177 91 -19 57 -10 158 20 219 30 61 66 96
170 167 41 27 80 57 86 65 7 8 13 14 14 14 0 0 1 -102 1 -228z"/>
</g>
</svg>
